<?xml version="1.0" encoding="utf-8"?><svg viewBox="0 0 583 470" xmlns="http://www.w3.org/2000/svg" xmlns:xlink="http://www.w3.org/1999/xlink"><style>:root>svg{display:none}:root>svg:target{display:block}</style><svg fill="none" viewBox="0 0 70 470" id="about-us--Dots" xmlns="http://www.w3.org/2000/svg"><circle r="5" transform="matrix(-1 0 0 1 65 125)" fill="#41EAD4"/><circle r="5" transform="matrix(-1 0 0 1 45 125)" fill="#41EAD4"/><circle r="5" transform="matrix(-1 0 0 1 25 125)" fill="#41EAD4"/><circle r="5" transform="matrix(-1 0 0 1 5 125)" fill="#41EAD4"/><circle r="5" transform="matrix(-1 0 0 1 65 145)" fill="#41EAD4"/><circle r="5" transform="matrix(-1 0 0 1 45 145)" fill="#41EAD4"/><circle r="5" transform="matrix(-1 0 0 1 25 145)" fill="#41EAD4"/><circle r="5" transform="matrix(-1 0 0 1 5 145)" fill="#41EAD4"/><circle r="5" transform="matrix(-1 0 0 1 65 165)" fill="#41EAD4"/><circle r="5" transform="matrix(-1 0 0 1 45 165)" fill="#41EAD4"/><circle r="5" transform="matrix(-1 0 0 1 25 165)" fill="#41EAD4"/><circle r="5" transform="matrix(-1 0 0 1 5 165)" fill="#41EAD4"/><circle r="5" transform="matrix(-1 0 0 1 65 185)" fill="#41EAD4"/><circle r="5" transform="matrix(-1 0 0 1 45 185)" fill="#41EAD4"/><circle r="5" transform="matrix(-1 0 0 1 25 185)" fill="#41EAD4"/><circle r="5" transform="matrix(-1 0 0 1 5 185)" fill="#41EAD4"/><circle r="5" transform="matrix(-1 0 0 1 65 205)" fill="#41EAD4"/><circle r="5" transform="matrix(-1 0 0 1 45 205)" fill="#41EAD4"/><circle r="5" transform="matrix(-1 0 0 1 25 205)" fill="#41EAD4"/><circle r="5" transform="matrix(-1 0 0 1 5 205)" fill="#41EAD4"/><circle r="5" transform="matrix(-1 0 0 1 65 225)" fill="#41EAD4"/><circle r="5" transform="matrix(-1 0 0 1 45 225)" fill="#41EAD4"/><circle r="5" transform="matrix(-1 0 0 1 25 225)" fill="#41EAD4"/><circle r="5" transform="matrix(-1 0 0 1 5 225)" fill="#41EAD4"/><circle r="5" transform="matrix(-1 0 0 1 65 5)" fill="#41EAD4"/><circle r="5" transform="matrix(-1 0 0 1 45 5)" fill="#41EAD4"/><circle r="5" transform="matrix(-1 0 0 1 25 5)" fill="#41EAD4"/><circle r="5" transform="matrix(-1 0 0 1 5 5)" fill="#41EAD4"/><circle r="5" transform="matrix(-1 0 0 1 65 25)" fill="#41EAD4"/><circle r="5" transform="matrix(-1 0 0 1 45 25)" fill="#41EAD4"/><circle r="5" transform="matrix(-1 0 0 1 25 25)" fill="#41EAD4"/><circle r="5" transform="matrix(-1 0 0 1 5 25)" fill="#41EAD4"/><circle r="5" transform="matrix(-1 0 0 1 65 45)" fill="#41EAD4"/><circle r="5" transform="matrix(-1 0 0 1 45 45)" fill="#41EAD4"/><circle r="5" transform="matrix(-1 0 0 1 25 45)" fill="#41EAD4"/><circle r="5" transform="matrix(-1 0 0 1 5 45)" fill="#41EAD4"/><circle r="5" transform="matrix(-1 0 0 1 65 65)" fill="#41EAD4"/><circle r="5" transform="matrix(-1 0 0 1 45 65)" fill="#41EAD4"/><circle r="5" transform="matrix(-1 0 0 1 25 65)" fill="#41EAD4"/><circle r="5" transform="matrix(-1 0 0 1 5 65)" fill="#41EAD4"/><circle r="5" transform="matrix(-1 0 0 1 65 85)" fill="#41EAD4"/><circle r="5" transform="matrix(-1 0 0 1 45 85)" fill="#41EAD4"/><circle r="5" transform="matrix(-1 0 0 1 25 85)" fill="#41EAD4"/><circle r="5" transform="matrix(-1 0 0 1 5 85)" fill="#41EAD4"/><circle r="5" transform="matrix(-1 0 0 1 65 105)" fill="#41EAD4"/><circle r="5" transform="matrix(-1 0 0 1 45 105)" fill="#41EAD4"/><circle r="5" transform="matrix(-1 0 0 1 25 105)" fill="#41EAD4"/><circle r="5" transform="matrix(-1 0 0 1 5 105)" fill="#41EAD4"/><circle r="5" transform="matrix(-1 0 0 1 65 245)" fill="#41EAD4"/><circle r="5" transform="matrix(-1 0 0 1 45 245)" fill="#41EAD4"/><circle r="5" transform="matrix(-1 0 0 1 25 245)" fill="#41EAD4"/><circle r="5" transform="matrix(-1 0 0 1 5 245)" fill="#41EAD4"/><circle r="5" transform="matrix(-1 0 0 1 65 265)" fill="#41EAD4"/><circle r="5" transform="matrix(-1 0 0 1 45 265)" fill="#41EAD4"/><circle r="5" transform="matrix(-1 0 0 1 25 265)" fill="#41EAD4"/><circle r="5" transform="matrix(-1 0 0 1 5 265)" fill="#41EAD4"/><circle r="5" transform="matrix(-1 0 0 1 65 285)" fill="#41EAD4"/><circle r="5" transform="matrix(-1 0 0 1 45 285)" fill="#41EAD4"/><circle r="5" transform="matrix(-1 0 0 1 25 285)" fill="#41EAD4"/><circle r="5" transform="matrix(-1 0 0 1 5 285)" fill="#41EAD4"/><circle r="5" transform="matrix(-1 0 0 1 65 305)" fill="#41EAD4"/><circle r="5" transform="matrix(-1 0 0 1 45 305)" fill="#41EAD4"/><circle r="5" transform="matrix(-1 0 0 1 25 305)" fill="#41EAD4"/><circle r="5" transform="matrix(-1 0 0 1 5 305)" fill="#41EAD4"/><circle r="5" transform="matrix(-1 0 0 1 65 325)" fill="#41EAD4"/><circle r="5" transform="matrix(-1 0 0 1 45 325)" fill="#41EAD4"/><circle r="5" transform="matrix(-1 0 0 1 25 325)" fill="#41EAD4"/><circle r="5" transform="matrix(-1 0 0 1 5 325)" fill="#41EAD4"/><circle r="5" transform="matrix(-1 0 0 1 65 345)" fill="#41EAD4"/><circle r="5" transform="matrix(-1 0 0 1 45 345)" fill="#41EAD4"/><circle r="5" transform="matrix(-1 0 0 1 25 345)" fill="#41EAD4"/><circle r="5" transform="matrix(-1 0 0 1 5 345)" fill="#41EAD4"/><circle r="5" transform="matrix(-1 0 0 1 65 365)" fill="#41EAD4"/><circle r="5" transform="matrix(-1 0 0 1 45 365)" fill="#41EAD4"/><circle r="5" transform="matrix(-1 0 0 1 25 365)" fill="#41EAD4"/><circle r="5" transform="matrix(-1 0 0 1 5 365)" fill="#41EAD4"/><circle r="5" transform="matrix(-1 0 0 1 65 385)" fill="#41EAD4"/><circle r="5" transform="matrix(-1 0 0 1 45 385)" fill="#41EAD4"/><circle r="5" transform="matrix(-1 0 0 1 25 385)" fill="#41EAD4"/><circle r="5" transform="matrix(-1 0 0 1 5 385)" fill="#41EAD4"/><circle r="5" transform="matrix(-1 0 0 1 65 405)" fill="#41EAD4"/><circle r="5" transform="matrix(-1 0 0 1 45 405)" fill="#41EAD4"/><circle r="5" transform="matrix(-1 0 0 1 25 405)" fill="#41EAD4"/><circle r="5" transform="matrix(-1 0 0 1 5 405)" fill="#41EAD4"/><circle r="5" transform="matrix(-1 0 0 1 65 425)" fill="#41EAD4"/><circle r="5" transform="matrix(-1 0 0 1 45 425)" fill="#41EAD4"/><circle r="5" transform="matrix(-1 0 0 1 25 425)" fill="#41EAD4"/><circle r="5" transform="matrix(-1 0 0 1 5 425)" fill="#41EAD4"/><circle r="5" transform="matrix(-1 0 0 1 65 445)" fill="#41EAD4"/><circle r="5" transform="matrix(-1 0 0 1 45 445)" fill="#41EAD4"/><circle r="5" transform="matrix(-1 0 0 1 25 445)" fill="#41EAD4"/><circle r="5" transform="matrix(-1 0 0 1 5 445)" fill="#41EAD4"/><circle r="5" transform="matrix(-1 0 0 1 65 465)" fill="#41EAD4"/><circle r="5" transform="matrix(-1 0 0 1 45 465)" fill="#41EAD4"/><circle r="5" transform="matrix(-1 0 0 1 25 465)" fill="#41EAD4"/><circle r="5" transform="matrix(-1 0 0 1 5 465)" fill="#41EAD4"/></svg><svg fill="none" viewBox="0 0 583 117" id="hero--heading" xmlns="http://www.w3.org/2000/svg"><path d="M72.84 88H58.2L16.8 23.92v43.92c0 1.2.48 2.44 1.44 3.72l12.36 16.2V88H.72v-.24l12-16.08c1.04-1.36 1.56-2.64 1.56-3.84V22.48c0-1.6-.36-2.88-1.08-3.84L1.2 3.88v-.24h28.32L70.32 67V23.8c0-1.36-.48-2.64-1.44-3.84L56.64 3.88v-.24h29.88v.24L74.4 19.96c-1.04 1.44-1.56 2.72-1.56 3.84V88zM99.174 22c-2.64 0-4.92-.8-6.84-2.4-1.84-1.68-2.76-3.84-2.76-6.48 0-2.8.92-5.04 2.76-6.72 1.92-1.76 4.2-2.64 6.84-2.64 2.8 0 5.12.88 6.96 2.64 1.84 1.68 2.76 3.92 2.76 6.72 0 2.64-.92 4.8-2.76 6.48-1.84 1.6-4.16 2.4-6.96 2.4zm-16.44 6.6h26.64v50.76c0 1.28.36 2.24 1.08 2.88l5.88 5.52V88h-33.6v-.24l5.88-5.52c.72-.64 1.08-1.6 1.08-2.88V37.84c0-1.2-.36-2.2-1.08-3l-5.88-6v-.24zM119.163 47.56c0-6.56 2.36-11.52 7.08-14.88 4.72-3.36 10.96-5.04 18.72-5.04 6.8 0 12.28 1.12 16.44 3.36.88.48 1.72.28 2.52-.6l12.48-13.2.24.12v18h-11.28c4.08 3.28 6.12 7.6 6.12 12.96 0 6.32-2.4 11.04-7.2 14.16-4.72 3.04-11.04 4.56-18.96 4.56-3.84 0-7.08-.32-9.72-.96-2.48.96-3.72 2.44-3.72 4.44 0 3.52 4.08 5.28 12.24 5.28h11.16c14.32 0 21.48 5.32 21.48 15.96 0 7.28-3.2 13.2-9.6 17.76-6.4 4.56-14.48 6.84-24.24 6.84-6.56 0-12.32-1.08-17.28-3.24-4.88-2.08-7.32-5.04-7.32-8.88 0-2.56 1.12-4.84 3.36-6.84 2.32-1.92 5.84-3.24 10.56-3.96-4.16-.88-7.4-2.48-9.72-4.8-2.24-2.32-3.36-5.08-3.36-8.28 0-3.52 1.36-6.56 4.08-9.12 2.72-2.56 6.4-4.4 11.04-5.52-10.08-2.56-15.12-8.6-15.12-18.12zM137.523 94c-1.84-.16-3.24-.32-4.2-.48-3.2 1.92-4.8 4.48-4.8 7.68 0 3.84 1.84 6.88 5.52 9.12 3.68 2.32 8 3.48 12.96 3.48 4.8 0 8.92-1 12.36-3 3.52-2 5.28-4.84 5.28-8.52 0-2.48-.88-4.36-2.64-5.64-1.68-1.28-4.64-2-8.88-2.16l-15.6-.48zm.12-46.8c0 6.4.64 10.96 1.92 13.68 1.28 2.72 3.2 4.08 5.76 4.08 2.56 0 4.48-1.32 5.76-3.96 1.28-2.72 1.92-7.28 1.92-13.68 0-6.32-.64-10.84-1.92-13.56-1.2-2.72-3.12-4.08-5.76-4.08-2.64 0-4.6 1.36-5.88 4.08-1.2 2.64-1.8 7.12-1.8 13.44zM241.13 52.96c0 2.88-.08 7.68-.24 14.4-.08 6.64-.12 10.64-.12 12 0 1.2.4 2.16 1.2 2.88l5.88 5.52V88h-33.6v-.24l5.64-5.52c.8-.72 1.2-1.64 1.2-2.76 0-.24.04-3.68.12-10.32.16-6.72.24-11.2.24-13.44 0-6-.68-10.52-2.04-13.56-1.28-3.04-3.64-4.56-7.08-4.56-3.52 0-6.52 1.8-9 5.4v36.36c0 1.2.4 2.16 1.2 2.88l5.88 5.52V88h-33.6v-.24l5.88-5.52c.72-.72 1.08-1.68 1.08-2.88V12.4c0-1.28-.36-2.28-1.08-3l-5.88-5.52v-.24L203.33.52v41.16c3.28-9.36 9.64-14.04 19.08-14.04 6.08 0 10.72 2.16 13.92 6.48 3.2 4.32 4.8 10.6 4.8 18.84zM286.803 28.6V31h-14.76v40.08c0 2.72.56 4.84 1.68 6.36 1.12 1.44 2.68 2.16 4.68 2.16 3.04 0 5.36-1.48 6.96-4.44l.24.12c-.72 3.84-2.52 7.08-5.4 9.72-2.8 2.64-6.84 3.96-12.12 3.96-10.4 0-15.6-5.48-15.6-16.44V31h-6.6v-2.4h5.4c1.68 0 2.92-.44 3.72-1.32l16.8-18.84h.24V28.6h14.76zM353.542 76.48c0 1.28.44 2.32 1.32 3.12l8.88 8.16V88h-42v-.24l8.88-8.16c.88-.88 1.32-1.92 1.32-3.12V6.04h-6.84c-.96 0-1.64.12-2.04.36-.32.16-.68.68-1.08 1.56l-14.76 28.08h-.24V3.64h71.52v32.4h-.24l-14.76-28.08c-.4-.88-.8-1.4-1.2-1.56-.32-.24-.96-.36-1.92-.36h-6.84v70.44zM431.036 31.6l-6.6 18.84h-.24l-9.48-11.28c-.72-.88-1.44-1.08-2.16-.6-1.52 1.12-3.24 3.44-5.16 6.96v32.4c0 1.2.6 2.2 1.8 3l11.76 6.84V88h-40.2v-.24l5.88-5.52c.72-.64 1.08-1.6 1.08-2.88V37.84c0-1.2-.36-2.2-1.08-3l-5.88-6v-.24h26.64v15.36c1.12-4.72 3-8.6 5.64-11.64 2.64-3.12 5.92-4.68 9.84-4.68 3.44 0 6.16 1.32 8.16 3.96z" fill="#fff"/><path d="M446.124 22c-2.64 0-4.92-.8-6.84-2.4-1.84-1.68-2.76-3.84-2.76-6.48 0-2.8.92-5.04 2.76-6.72 1.92-1.76 4.2-2.64 6.84-2.64 2.8 0 5.12.88 6.96 2.64 1.84 1.68 2.76 3.92 2.76 6.72 0 2.64-.92 4.8-2.76 6.48-1.84 1.6-4.16 2.4-6.96 2.4zm-16.44 6.6h26.64v50.76c0 1.28.36 2.24 1.08 2.88l5.88 5.52V88h-33.6v-.24l5.88-5.52c.72-.64 1.08-1.6 1.08-2.88V37.84c0-1.2-.36-2.2-1.08-3l-5.88-6v-.24z" fill="#fff"/><path d="M469.953 106.72V37.84c0-1.2-.36-2.2-1.08-3l-5.88-6v-.24h26.52v12.72c3.92-9.12 10.12-13.68 18.6-13.68 6.72 0 12.16 2.68 16.32 8.04 4.24 5.28 6.36 12.4 6.36 21.36 0 9.52-2.4 17.24-7.2 23.16-4.8 5.84-10.88 8.76-18.24 8.76-8.24 0-13.52-3.04-15.84-9.12V106c0 .8.08 1.36.24 1.68.24.32.76.76 1.56 1.32l8.88 6.12v.24h-37.2v-.24l5.88-5.52c.72-.72 1.08-1.68 1.08-2.88zm28.56-69.48c-3.52 0-6.52 1.88-9 5.64V79c1.84 2 4.44 3 7.8 3 3.44 0 6.4-1.96 8.88-5.88 2.56-4 3.84-10.04 3.84-18.12 0-13.84-3.84-20.76-11.52-20.76zM566.877 78.04c0-2.32-.84-4.16-2.52-5.52-1.6-1.36-4.6-3.04-9-5.04l-8.16-3.84c-7.76-3.68-11.64-9.36-11.64-17.04 0-5.76 2.2-10.36 6.6-13.8 4.4-3.44 10.4-5.16 18-5.16 7.04 0 14.08 1.08 21.12 3.24l-6.72 17.4h-.24l-9.36-16.68c-.72-1.2-1.64-1.8-2.76-1.8h-1.68c-2.8 0-5.12.72-6.96 2.16-1.84 1.44-2.76 3.52-2.76 6.24 0 2.48.84 4.48 2.52 6 1.76 1.52 4.6 3.16 8.52 4.92l7.68 3.36c4.32 1.84 7.6 4 9.84 6.48 2.32 2.48 3.48 5.84 3.48 10.08 0 6.32-2.44 11.24-7.32 14.76-4.88 3.44-11.4 5.16-19.56 5.16-7.68 0-15.04-1.24-22.08-3.72l6.6-18.6h.24l9.6 18.6c.48 1.04 1.32 1.56 2.52 1.56h2.76c3.44 0 6.16-.8 8.16-2.4 2.08-1.6 3.12-3.72 3.12-6.36z" fill="#fff"/></svg><svg fill="none" viewBox="0 0 230 230" id="trip--Dots" xmlns="http://www.w3.org/2000/svg"><circle cx="5" cy="125" r="5" fill="#41EAD4"/><circle cx="25" cy="125" r="5" fill="#41EAD4"/><circle cx="45" cy="125" r="5" fill="#41EAD4"/><circle cx="65" cy="125" r="5" fill="#41EAD4"/><circle cx="85" cy="125" r="5" fill="#41EAD4"/><circle cx="105" cy="125" r="5" fill="#41EAD4"/><circle cx="5" cy="145" r="5" fill="#41EAD4"/><circle cx="25" cy="145" r="5" fill="#41EAD4"/><circle cx="45" cy="145" r="5" fill="#41EAD4"/><circle cx="65" cy="145" r="5" fill="#41EAD4"/><circle cx="85" cy="145" r="5" fill="#41EAD4"/><circle cx="105" cy="145" r="5" fill="#41EAD4"/><circle cx="5" cy="165" r="5" fill="#41EAD4"/><circle cx="25" cy="165" r="5" fill="#41EAD4"/><circle cx="45" cy="165" r="5" fill="#41EAD4"/><circle cx="65" cy="165" r="5" fill="#41EAD4"/><circle cx="85" cy="165" r="5" fill="#41EAD4"/><circle cx="105" cy="165" r="5" fill="#41EAD4"/><circle cx="5" cy="185" r="5" fill="#41EAD4"/><circle cx="25" cy="185" r="5" fill="#41EAD4"/><circle cx="45" cy="185" r="5" fill="#41EAD4"/><circle cx="65" cy="185" r="5" fill="#41EAD4"/><circle cx="85" cy="185" r="5" fill="#41EAD4"/><circle cx="105" cy="185" r="5" fill="#41EAD4"/><circle cx="5" cy="205" r="5" fill="#41EAD4"/><circle cx="25" cy="205" r="5" fill="#41EAD4"/><circle cx="45" cy="205" r="5" fill="#41EAD4"/><circle cx="65" cy="205" r="5" fill="#41EAD4"/><circle cx="85" cy="205" r="5" fill="#41EAD4"/><circle cx="105" cy="205" r="5" fill="#41EAD4"/><circle cx="5" cy="225" r="5" fill="#41EAD4"/><circle cx="25" cy="225" r="5" fill="#41EAD4"/><circle cx="45" cy="225" r="5" fill="#41EAD4"/><circle cx="65" cy="225" r="5" fill="#41EAD4"/><circle cx="85" cy="225" r="5" fill="#41EAD4"/><circle cx="105" cy="225" r="5" fill="#41EAD4"/><circle cx="5" cy="5" r="5" fill="#41EAD4"/><circle cx="25" cy="5" r="5" fill="#41EAD4"/><circle cx="45" cy="5" r="5" fill="#41EAD4"/><circle cx="65" cy="5" r="5" fill="#41EAD4"/><circle cx="85" cy="5" r="5" fill="#41EAD4"/><circle cx="105" cy="5" r="5" fill="#41EAD4"/><circle cx="5" cy="25" r="5" fill="#41EAD4"/><circle cx="25" cy="25" r="5" fill="#41EAD4"/><circle cx="45" cy="25" r="5" fill="#41EAD4"/><circle cx="65" cy="25" r="5" fill="#41EAD4"/><circle cx="85" cy="25" r="5" fill="#41EAD4"/><circle cx="105" cy="25" r="5" fill="#41EAD4"/><circle cx="5" cy="45" r="5" fill="#41EAD4"/><circle cx="25" cy="45" r="5" fill="#41EAD4"/><circle cx="45" cy="45" r="5" fill="#41EAD4"/><circle cx="65" cy="45" r="5" fill="#41EAD4"/><circle cx="85" cy="45" r="5" fill="#41EAD4"/><circle cx="105" cy="45" r="5" fill="#41EAD4"/><circle cx="5" cy="65" r="5" fill="#41EAD4"/><circle cx="25" cy="65" r="5" fill="#41EAD4"/><circle cx="45" cy="65" r="5" fill="#41EAD4"/><circle cx="65" cy="65" r="5" fill="#41EAD4"/><circle cx="85" cy="65" r="5" fill="#41EAD4"/><circle cx="105" cy="65" r="5" fill="#41EAD4"/><circle cx="5" cy="85" r="5" fill="#41EAD4"/><circle cx="25" cy="85" r="5" fill="#41EAD4"/><circle cx="45" cy="85" r="5" fill="#41EAD4"/><circle cx="65" cy="85" r="5" fill="#41EAD4"/><circle cx="85" cy="85" r="5" fill="#41EAD4"/><circle cx="105" cy="85" r="5" fill="#41EAD4"/><circle cx="5" cy="105" r="5" fill="#41EAD4"/><circle cx="25" cy="105" r="5" fill="#41EAD4"/><circle cx="45" cy="105" r="5" fill="#41EAD4"/><circle cx="65" cy="105" r="5" fill="#41EAD4"/><circle cx="85" cy="105" r="5" fill="#41EAD4"/><circle cx="105" cy="105" r="5" fill="#41EAD4"/><circle cx="125" cy="125" r="5" fill="#41EAD4"/><circle cx="145" cy="125" r="5" fill="#41EAD4"/><circle cx="165" cy="125" r="5" fill="#41EAD4"/><circle cx="185" cy="125" r="5" fill="#41EAD4"/><circle cx="205" cy="125" r="5" fill="#41EAD4"/><circle cx="225" cy="125" r="5" fill="#41EAD4"/><circle cx="125" cy="145" r="5" fill="#41EAD4"/><circle cx="145" cy="145" r="5" fill="#41EAD4"/><circle cx="165" cy="145" r="5" fill="#41EAD4"/><circle cx="185" cy="145" r="5" fill="#41EAD4"/><circle cx="205" cy="145" r="5" fill="#41EAD4"/><circle cx="225" cy="145" r="5" fill="#41EAD4"/><circle cx="125" cy="165" r="5" fill="#41EAD4"/><circle cx="145" cy="165" r="5" fill="#41EAD4"/><circle cx="165" cy="165" r="5" fill="#41EAD4"/><circle cx="185" cy="165" r="5" fill="#41EAD4"/><circle cx="205" cy="165" r="5" fill="#41EAD4"/><circle cx="225" cy="165" r="5" fill="#41EAD4"/><circle cx="125" cy="185" r="5" fill="#41EAD4"/><circle cx="145" cy="185" r="5" fill="#41EAD4"/><circle cx="165" cy="185" r="5" fill="#41EAD4"/><circle cx="185" cy="185" r="5" fill="#41EAD4"/><circle cx="205" cy="185" r="5" fill="#41EAD4"/><circle cx="225" cy="185" r="5" fill="#41EAD4"/><circle cx="125" cy="205" r="5" fill="#41EAD4"/><circle cx="145" cy="205" r="5" fill="#41EAD4"/><circle cx="165" cy="205" r="5" fill="#41EAD4"/><circle cx="185" cy="205" r="5" fill="#41EAD4"/><circle cx="205" cy="205" r="5" fill="#41EAD4"/><circle cx="225" cy="205" r="5" fill="#41EAD4"/><circle cx="125" cy="225" r="5" fill="#41EAD4"/><circle cx="145" cy="225" r="5" fill="#41EAD4"/><circle cx="165" cy="225" r="5" fill="#41EAD4"/><circle cx="185" cy="225" r="5" fill="#41EAD4"/><circle cx="205" cy="225" r="5" fill="#41EAD4"/><circle cx="225" cy="225" r="5" fill="#41EAD4"/></svg></svg>